<?xml version="1.0" encoding="UTF-8" standalone="no"?><!DOCTYPE svg PUBLIC "-//W3C//DTD SVG 1.1//EN" "http://www.w3.org/Graphics/SVG/1.1/DTD/svg11.dtd"><svg width="100%" height="100%" viewBox="0 0 340 307" version="1.1" xmlns="http://www.w3.org/2000/svg" xmlns:xlink="http://www.w3.org/1999/xlink" xml:space="preserve" xmlns:serif="http://www.serif.com/" style="fill-rule:evenodd;clip-rule:evenodd;stroke-linejoin:round;stroke-miterlimit:1.41421;"><g id="icon"><path d="M224.445,38.363c-30.153,0 -54.785,10.829 -73.896,32.489c-5.521,5.945 -11.042,8.918 -16.563,8.918c-5.096,0 -9.45,-1.805 -13.059,-5.415c-3.61,-3.61 -5.415,-7.963 -5.415,-13.059c0,-3.822 1.061,-7.432 3.185,-10.83c21.234,-33.55 56.484,-50.325 105.748,-50.325c36.523,0 64.765,9.767 84.726,29.303c19.96,19.536 29.941,45.867 29.941,78.993l0,175.185c0,5.521 -1.911,10.192 -5.734,14.015c-3.822,3.822 -8.493,5.733 -14.014,5.733c-5.521,0 -10.193,-1.911 -14.015,-5.733c-3.822,-3.823 -5.734,-8.494 -5.734,-14.015l0,-22.933c-7.644,14.439 -19.748,25.693 -36.311,33.763c-16.563,8.069 -34.824,12.103 -54.785,12.103c-33.975,0 -60.837,-7.963 -80.585,-23.889c-19.748,-15.926 -29.622,-38.328 -29.622,-67.207c0,-28.03 9.98,-50.007 29.94,-65.933c19.961,-15.926 47.141,-23.889 81.541,-23.889l89.822,0l0,-17.2c0,-21.659 -6.688,-38.753 -20.066,-51.282c-13.378,-12.528 -31.746,-18.792 -55.104,-18.792Zm-12.104,231.244c23.783,0 44.274,-7.22 61.474,-21.659c17.2,-14.44 25.8,-34.4 25.8,-59.882l0,-26.755l-89.822,0c-21.659,0 -38.753,4.565 -51.281,13.696c-12.529,9.131 -18.793,22.615 -18.793,40.452c0,36.099 24.208,54.148 72.622,54.148Z" style="fill:#fff;fill-rule:nonzero;"/><path id="Ellipse-2" serif:id="Ellipse 2" d="M35.443,235.491c19.218,0 34.797,15.579 34.797,34.796c0,19.217 -15.579,34.796 -34.797,34.796c-19.217,0 -34.796,-15.579 -34.796,-34.796c0,-19.217 15.579,-34.796 34.796,-34.796Z" style="fill:#ffce48;"/></g></svg>