<?xml version="1.0" encoding="UTF-8" standalone="no"?>
<!DOCTYPE svg PUBLIC "-//W3C//DTD SVG 1.1//EN" "http://www.w3.org/Graphics/SVG/1.1/DTD/svg11.dtd">
<svg width="100%" height="100%" viewBox="0 0 67 29" version="1.1" xmlns="http://www.w3.org/2000/svg" xmlns:xlink="http://www.w3.org/1999/xlink" xml:space="preserve" xmlns:serif="http://www.serif.com/" style="fill-rule:evenodd;clip-rule:evenodd;stroke-linejoin:round;stroke-miterlimit:2;">
    <g transform="matrix(1,0,0,1,-7,-9)">
        <g>
            <path d="M63.635,36.175C63.327,36.571 62.865,36.879 62.249,37.099C61.633,37.319 60.973,37.429 60.269,37.429C59.631,37.429 59.004,37.286 58.388,37C57.772,36.736 57.343,36.362 57.101,35.878C56.661,36.45 56.111,36.846 55.451,37.066C54.813,37.308 54.01,37.429 53.042,37.429C51.81,37.429 50.677,37.121 49.643,36.505C48.609,35.867 47.773,34.932 47.135,33.7C46.519,32.446 46.211,30.917 46.211,29.113C46.211,26.979 46.607,25.164 47.399,23.668C48.213,22.172 49.28,21.05 50.6,20.302C51.92,19.554 53.372,19.18 54.956,19.18C55.33,19.18 56.001,19.224 56.969,19.312L56.87,17.332L56.87,15.682C56.87,15.132 56.716,14.725 56.408,14.461C56.1,14.197 55.517,14.065 54.659,14.065L54.659,12.712C55.429,12.294 56.43,11.92 57.662,11.59C58.894,11.26 59.862,11.095 60.566,11.095C61.072,11.095 61.435,11.216 61.655,11.458C61.897,11.678 62.018,12.063 62.018,12.613L62.018,33.337C62.018,34.415 62.546,35.053 63.602,35.251L63.635,36.175ZM55.319,34.624C56.001,34.624 56.518,34.426 56.87,34.03L56.87,22.48C56.408,21.842 55.792,21.523 55.022,21.523C54.054,21.523 53.273,22.029 52.679,23.041C52.107,24.053 51.821,25.692 51.821,27.958C51.821,30.136 52.14,31.797 52.778,32.941C53.438,34.063 54.285,34.624 55.319,34.624Z" style="fill:rgb(39,63,75);"/>
            <path d="M31.357,35.214C31.976,35.213 32.415,35.081 32.674,34.822C32.96,34.536 33.103,34.063 33.103,33.403L33.103,23.866C33.103,23.272 32.938,22.854 32.608,22.612C32.3,22.37 31.739,22.249 30.925,22.249L30.925,20.764C31.651,20.346 32.608,19.983 33.796,19.675C35.006,19.345 35.941,19.18 36.601,19.18C37.129,19.18 37.503,19.367 37.723,19.741C37.943,20.115 38.053,20.863 38.053,21.985C38.449,21.237 39.076,20.566 39.934,19.972C40.792,19.378 41.672,19.081 42.574,19.081C43.564,19.081 44.29,19.334 44.752,19.84C45.214,20.346 45.445,21.039 45.445,21.919C45.445,22.865 45.192,23.635 44.686,24.229C44.202,24.823 43.542,25.12 42.706,25.12C41.98,25.12 41.386,24.911 40.924,24.493C40.484,24.075 40.264,23.58 40.264,23.008C40.264,22.656 40.297,22.381 40.363,22.183C39.571,22.381 38.9,22.722 38.35,23.206L38.35,33.106C38.35,33.656 38.427,34.074 38.581,34.36C38.735,34.646 39.032,34.866 39.472,35.02C39.934,35.152 40.616,35.218 41.518,35.218C41.518,35.614 41.474,35.955 41.386,36.241C41.298,36.505 41.133,36.758 40.891,37L32.08,37C31.598,36.518 31.345,35.955 31.34,35.312L31.357,35.214Z" style="fill:rgb(39,63,75);"/>
            <path d="M71.799,33.436C71.799,34.074 71.953,34.536 72.261,34.822C72.591,35.086 73.086,35.218 73.746,35.218C73.746,35.9 73.493,36.494 72.987,37L65.529,37C65.023,36.494 64.77,35.9 64.77,35.218C65.43,35.218 65.903,35.086 66.189,34.822C66.497,34.536 66.651,34.063 66.651,33.403L66.651,23.833C66.651,23.217 66.497,22.777 66.189,22.513C65.903,22.249 65.331,22.117 64.473,22.117L64.473,20.665C65.001,20.335 65.892,19.994 67.146,19.642C68.422,19.268 69.5,19.081 70.38,19.081C70.886,19.081 71.249,19.202 71.469,19.444C71.689,19.664 71.799,20.049 71.799,20.599L71.799,33.436Z" style="fill:rgb(39,63,75);"/>
            <path d="M31.34,35.312L31.215,36.043C31.083,36.417 30.896,36.736 30.654,37L21.711,37C21.469,36.736 21.282,36.417 21.15,36.043C21.018,35.669 20.952,35.284 20.952,34.888C22.206,34.888 22.833,34.36 22.833,33.304C22.833,32.864 22.756,32.347 22.602,31.753L22.404,31.06L15.012,31.06L14.814,31.753C14.616,32.435 14.517,32.919 14.517,33.205C14.517,34.327 15.221,34.888 16.629,34.888C16.629,35.284 16.563,35.669 16.431,36.043C16.299,36.417 16.112,36.736 15.87,37L8.511,37C8.269,36.736 8.082,36.417 7.95,36.043C7.818,35.669 7.752,35.284 7.752,34.888C8.368,34.888 8.929,34.712 9.435,34.36C9.941,33.986 10.315,33.447 10.557,32.743L15.969,16.771C15.089,16.485 13.978,16.342 12.636,16.342C12.636,15.396 12.9,14.604 13.428,13.966L22.47,13.966L28.608,32.644C28.828,33.348 29.202,33.898 29.73,34.294C30.258,34.69 30.819,34.888 31.413,34.888L31.357,35.214L31.321,35.218L31.34,35.312ZM21.678,28.486L19.335,20.302C19.137,19.642 18.884,19.081 18.576,18.619L15.738,28.486L21.678,28.486Z" style="fill:rgb(39,63,75);"/>
            <path d="M72.426,13.669C72.426,14.615 72.129,15.374 71.535,15.946C70.963,16.496 70.193,16.771 69.225,16.771C68.279,16.771 67.52,16.496 66.948,15.946C66.398,15.374 66.123,14.615 66.123,13.669C66.123,12.745 66.409,11.997 66.981,11.425C67.575,10.853 68.345,10.567 69.291,10.567C70.237,10.567 70.996,10.853 71.568,11.425C72.14,11.997 72.426,12.745 72.426,13.669Z" style="fill:rgb(39,63,75);"/>
            <g transform="matrix(1,0,0,1,0.746,0.248469)">
                <circle cx="69" cy="13" r="4" style="fill:rgb(233,171,255);"/>
            </g>
        </g>
    </g>
</svg>
