<svg width="19" height="30" viewBox="0 0 19 30" fill="none" xmlns="http://www.w3.org/2000/svg">
<path d="M18.5601 11.499C18.5056 11.4028 18.4265 11.3228 18.331 11.2672C18.2355 11.2115 18.1269 11.1822 18.0163 11.1822H9.82883L11.2015 0.694193C11.2162 0.553828 11.1833 0.41259 11.108 0.29322C11.0327 0.17385 10.9194 0.0832947 10.7864 0.0361332C10.6534 -0.0110282 10.5083 -0.012051 10.3747 0.0332296C10.241 0.0785102 10.1264 0.167459 10.0495 0.285755L0.0925798 17.7298C0.0343549 17.8245 0.00244325 17.933 0.000134797 18.0442C-0.00217366 18.1553 0.0252046 18.2651 0.0794471 18.3621C0.13369 18.4592 0.212833 18.54 0.308717 18.5962C0.404601 18.6525 0.513755 18.6821 0.624924 18.6822H8.69008L7.60227 29.1859C7.59158 29.3258 7.62798 29.4652 7.70567 29.582C7.78337 29.6988 7.8979 29.7863 8.03104 29.8305C8.16418 29.8747 8.30828 29.8732 8.44041 29.826C8.57255 29.7789 8.68513 29.6889 8.76024 29.5704L18.5526 12.1283C18.6094 12.0334 18.64 11.9252 18.6413 11.8147C18.6426 11.7041 18.6146 11.5952 18.5601 11.499Z" fill="#FF8A00"/>
</svg>
