<?xml version="1.0" encoding="UTF-8" standalone="no"?>
<!DOCTYPE svg PUBLIC "-//W3C//DTD SVG 1.1//EN" "http://www.w3.org/Graphics/SVG/1.1/DTD/svg11.dtd">
<svg width="100%" height="100%" viewBox="0 0 100 100" version="1.1" xmlns="http://www.w3.org/2000/svg" xmlns:xlink="http://www.w3.org/1999/xlink" xml:space="preserve" xmlns:serif="http://www.serif.com/" style="fill-rule:evenodd;clip-rule:evenodd;stroke-linejoin:round;stroke-miterlimit:2;">
    <g id="Artboard1" transform="matrix(1.27065,0,0,2.457,0,0)">
        <rect x="0" y="0" width="78.7" height="40.7" style="fill:none;"/>
        <g id="logo" transform="matrix(2.80547,0,0,1.45086,-33.7215,-14.1793)">
            <g id="ard" transform="matrix(0.273427,0,0,0.273427,20.4411,7.58294)">
                <path d="M27.608,36.176C21.975,36.176 17.374,38.199 13.804,42.245C12.773,43.356 11.741,43.911 10.71,43.911C9.758,43.911 8.945,43.574 8.271,42.899C7.596,42.225 7.259,41.412 7.259,40.46C7.259,39.746 7.457,39.072 7.854,38.437C11.821,32.17 18.405,29.036 27.608,29.036C34.431,29.036 39.706,30.861 43.435,34.51C47.164,38.159 49.028,43.078 49.028,49.266L49.028,81.991C49.028,83.022 48.671,83.895 47.957,84.609C47.243,85.323 46.37,85.68 45.339,85.68C44.308,85.68 43.435,85.323 42.721,84.609C42.007,83.895 41.65,83.022 41.65,81.991L41.65,77.707C40.222,80.404 37.961,82.507 34.867,84.014C31.773,85.521 28.362,86.275 24.633,86.275C18.286,86.275 13.269,84.787 9.58,81.813C5.891,78.837 4.046,74.653 4.046,69.258C4.046,64.022 5.91,59.916 9.639,56.941C13.368,53.966 18.445,52.479 24.871,52.479L41.65,52.479L41.65,49.266C41.65,45.22 40.4,42.027 37.902,39.686C35.403,37.346 31.971,36.176 27.608,36.176ZM25.347,79.373C29.79,79.373 33.618,78.024 36.831,75.327C40.044,72.63 41.65,68.901 41.65,64.141L41.65,59.143L24.871,59.143C20.825,59.143 17.632,59.996 15.292,61.701C12.951,63.407 11.781,65.926 11.781,69.258C11.781,76.001 16.303,79.373 25.347,79.373Z" style="fill:white;fill-rule:nonzero;"/>
            </g>
            <g id="dot" transform="matrix(0.273427,0,0,0.273427,-70.1173,-80.734)">
                <path d="M323.5,396C327.09,396 330,398.91 330,402.5C330,406.09 327.09,409 323.5,409C319.91,409 317,406.09 317,402.5C317,398.91 319.91,396 323.5,396Z" style="fill:rgb(255,138,0);"/>
            </g>
        </g>
    </g>
</svg>
