<?xml version="1.0" encoding="UTF-8" standalone="no"?>
<!DOCTYPE svg PUBLIC "-//W3C//DTD SVG 1.1//EN" "http://www.w3.org/Graphics/SVG/1.1/DTD/svg11.dtd">
<svg width="100%" height="100%" viewBox="0 0 500 500" version="1.1" xmlns="http://www.w3.org/2000/svg" xmlns:xlink="http://www.w3.org/1999/xlink" xml:space="preserve" xmlns:serif="http://www.serif.com/" style="fill-rule:evenodd;clip-rule:evenodd;stroke-linejoin:round;stroke-miterlimit:2;">
    <g transform="matrix(0.475925,0,0,0.475925,104.367,104.367)">
        <g transform="matrix(2.20214,0,0,5.08529,-225.57,-193.209)">
            <path d="M358.487,42.431C358.487,33.845 342.389,26.874 322.562,26.874L104.369,26.874C84.541,26.874 68.444,33.845 68.444,42.431C68.444,51.017 84.541,57.988 104.369,57.988L322.562,57.988C342.389,57.988 358.487,51.017 358.487,42.431Z"/>
        </g>
        <g transform="matrix(2.77258,-0.00648266,0,5.08529,-264.613,90.8102)">
            <path d="M358.487,42.431C358.487,33.845 345.701,26.874 329.953,26.874L96.977,26.874C81.229,26.874 68.444,33.845 68.444,42.431C68.444,51.017 81.229,57.988 96.977,57.988L329.953,57.988C345.701,57.988 358.487,51.017 358.487,42.431Z"/>
        </g>
        <g transform="matrix(2.20214,0,0,5.08529,-225.57,372.062)">
            <path d="M358.487,42.431C358.487,33.845 342.389,26.874 322.562,26.874L104.369,26.874C84.541,26.874 68.444,33.845 68.444,42.431C68.444,51.017 84.541,57.988 104.369,57.988L322.562,57.988C342.389,57.988 358.487,51.017 358.487,42.431Z"/>
        </g>
    </g>
</svg>
